<?xml version="1.0" encoding="UTF-8"?>
<svg width="120px" height="101px" viewBox="0 0 120 101" version="1.1" xmlns="http://www.w3.org/2000/svg" xmlns:xlink="http://www.w3.org/1999/xlink">
    <!-- Generator: Sketch 49.3 (51167) - http://www.bohemiancoding.com/sketch -->
    <title>Untitled 4</title>
    <desc>Created with Sketch.</desc>
    <defs></defs>
    <g id="Page-1" stroke="none" stroke-width="1" fill="none" fill-rule="evenodd">
        <path d="M59.5,101 C31.8857625,101 9.5,78.6142375 9.5,51 C9.5,23.3857625 31.8857625,1 59.5,1 C87.1142375,1 109.5,23.3857625 109.5,51 C109.5,78.6142375 87.1142375,101 59.5,101 Z M110,100.5 C104.477153,100.5 100,96.0228475 100,90.5 C100,84.9771525 104.477153,80.5 110,80.5 C115.522847,80.5 120,84.9771525 120,90.5 C120,96.0228475 115.522847,100.5 110,100.5 Z M10,20 C4.4771525,20 0,15.5228475 0,10 C0,4.4771525 4.4771525,0 10,0 C15.5228475,0 20,4.4771525 20,10 C20,15.5228475 15.5228475,20 10,20 Z M59.5,83.5 C77.4492544,83.5 92,68.9492544 92,51 C92,33.0507456 77.4492544,18.5 59.5,18.5 C41.5507456,18.5 27,33.0507456 27,51 C27,68.9492544 41.5507456,83.5 59.5,83.5 Z" id="Combined-Shape" fill="#FFFFFF"></path>
    </g>
</svg>